# xmcd
#
# Track frame offsets:
#	150
#	29271
#	59466
#	87647
#	112260
#	140007
#	174143
#	196467
#	221595
#	243592
#	281423
#	311871
#
# Disc length: 4567 seconds
# Revision: 0
# Processed by: cddbd v1.5.2PL0 Copyright (c) Steve Scherf et al.
# Submitted via: dBpowerAMP V12.0
#
DISCID=ba11d50c
DTITLE=Lyndsay Faye - Der Teufel von New York 4
DYEAR=2013
DGENRE=Other
TTITLE0=40
TTITLE1=41
TTITLE2=42
TTITLE3=43
TTITLE4=44
TTITLE5=45
TTITLE6=46
TTITLE7=47
TTITLE8=48
TTITLE9=49
TTITLE10=50
TTITLE11=51
EXTD=
EXTT0=
EXTT1=
EXTT2=
EXTT3=
EXTT4=
EXTT5=
EXTT6=
EXTT7=
EXTT8=
EXTT9=
EXTT10=
EXTT11=
PLAYORDER=
